<svg width="15" height="16" viewBox="0 0 15 16" fill="none" xmlns="http://www.w3.org/2000/svg">
<path d="M6.9993 15L6.9993 3.14L2.6393 6.77C2.43508 6.93974 2.1718 7.0214 1.90738 6.99702C1.64295 6.97264 1.39904 6.84422 1.2293 6.64C1.05956 6.43578 0.977899 6.1725 1.00228 5.90808C1.02666 5.64365 1.15508 5.39974 1.3593 5.23L7.3593 0.23C7.40702 0.19636 7.45716 0.166279 7.5093 0.14C7.5593 0.14 7.5893 0.14 7.6393 0.0699999C7.75396 0.0246734 7.87601 0.000940821 7.9993 -3.06034e-07C8.12259 0.00094081 8.24464 0.0246733 8.3593 0.0699998C8.4093 0.0699998 8.4393 0.0699995 8.4893 0.14C8.54144 0.166279 8.59158 0.19636 8.6393 0.23L14.6393 5.23C14.7522 5.32402 14.843 5.44176 14.9052 5.57485C14.9674 5.70793 14.9995 5.85309 14.9993 6C14.9998 6.23365 14.9184 6.46009 14.7693 6.64C14.6854 6.74126 14.5822 6.82496 14.4659 6.88631C14.3496 6.94766 14.2222 6.98546 14.0913 6.99754C13.9603 7.00961 13.8282 6.99573 13.7026 6.95669C13.577 6.91764 13.4603 6.8542 13.3593 6.77L8.9993 3.14L8.9993 15C8.9993 15.2652 8.89394 15.5196 8.70641 15.7071C8.51887 15.8946 8.26452 16 7.9993 16C7.73408 16 7.47973 15.8946 7.29219 15.7071C7.10466 15.5196 6.9993 15.2652 6.9993 15Z" fill="white"/>
</svg>
