<svg width="16" height="15" viewBox="0 0 16 15" fill="none" xmlns="http://www.w3.org/2000/svg">
<path d="M1 6.99979H12.86L9.23 2.63979C9.06026 2.43557 8.9786 2.17229 9.00298 1.90786C9.02736 1.64344 9.15578 1.39953 9.36 1.22979C9.56422 1.06005 9.8275 0.978387 10.0919 1.00277C10.3563 1.02715 10.6003 1.15557 10.77 1.35979L15.77 7.35979C15.8036 7.40751 15.8337 7.45765 15.86 7.50979C15.86 7.55979 15.86 7.58979 15.93 7.63979C15.9753 7.75445 15.9991 7.8765 16 7.99979C15.9991 8.12308 15.9753 8.24513 15.93 8.35979C15.93 8.40979 15.93 8.43979 15.86 8.48979C15.8337 8.54193 15.8036 8.59206 15.77 8.63979L10.77 14.6398C10.676 14.7527 10.5582 14.8434 10.4252 14.9057C10.2921 14.9679 10.1469 15 10 14.9998C9.76635 15.0002 9.53991 14.9189 9.36 14.7698C9.25874 14.6858 9.17504 14.5827 9.11369 14.4664C9.05234 14.35 9.01454 14.2227 9.00246 14.0918C8.99039 13.9608 9.00427 13.8287 9.04331 13.7031C9.08236 13.5775 9.1458 13.4608 9.23 13.3598L12.86 8.99979H1C0.734783 8.99979 0.480429 8.89443 0.292892 8.70689C0.105356 8.51936 0 8.265 0 7.99979C0 7.73457 0.105356 7.48022 0.292892 7.29268C0.480429 7.10514 0.734783 6.99979 1 6.99979Z" fill="#0A4C83"/>
</svg>
