<svg width="16" height="15" viewBox="0 0 16 15" fill="none" xmlns="http://www.w3.org/2000/svg">
<path d="M1 7.00003H12.86L9.23 2.64003C9.06026 2.43581 8.9786 2.17253 9.00298 1.90811C9.02736 1.64368 9.15578 1.39977 9.36 1.23003C9.56422 1.06029 9.8275 0.978631 10.0919 1.00301C10.3563 1.02739 10.6003 1.15581 10.77 1.36003L15.77 7.36003C15.8036 7.40776 15.8337 7.45789 15.86 7.51003C15.86 7.56003 15.86 7.59003 15.93 7.64003C15.9753 7.75469 15.9991 7.87674 16 8.00003C15.9991 8.12332 15.9753 8.24537 15.93 8.36003C15.93 8.41003 15.93 8.44003 15.86 8.49003C15.8337 8.54217 15.8036 8.59231 15.77 8.64003L10.77 14.64C10.676 14.7529 10.5582 14.8437 10.4252 14.9059C10.2921 14.9681 10.1469 15.0003 10 15C9.76635 15.0005 9.53991 14.9191 9.36 14.77C9.25874 14.6861 9.17504 14.583 9.11369 14.4666C9.05234 14.3503 9.01454 14.223 9.00246 14.092C8.99039 13.961 9.00427 13.829 9.04331 13.7034C9.08236 13.5777 9.1458 13.4611 9.23 13.36L12.86 9.00003H1C0.734783 9.00003 0.480429 8.89467 0.292892 8.70714C0.105356 8.5196 0 8.26525 0 8.00003C0 7.73482 0.105356 7.48046 0.292892 7.29292C0.480429 7.10539 0.734783 7.00003 1 7.00003Z" fill="#323232"/>
</svg>
